<svg xmlns="http://www.w3.org/2000/svg" width="64" height="64" fill="none" viewBox="0 0 64 64">
    <path stroke="black" stroke-linecap="round" stroke-linejoin="round" d="M2 31.9808L17 5.99999M2 31.9808L17 57.9615M2 31.9808L20.5 49.9808M2 31.9808L20.5 14.4808M17 5.99999H47M17 5.99999L20.5 14.4808M47 5.99999L62 31.9808M47 5.99999L50 31.9808M47 5.99999L20.5 14.4808M62 31.9808L47 57.9615M62 31.9808H50M47 57.9615H17M47 57.9615L50 31.9808M47 57.9615L20.5 49.9808M17 57.9615L20.5 49.9808"/>
    <path stroke="black" stroke-linecap="round" stroke-linejoin="round" stroke-width="3" d="M2.28868 32.4808C2.11004 32.1714 2.11004 31.7902 2.28868 31.4808L16.7113 6.49999C16.89 6.19059 17.2201 5.99999 17.5774 5.99999H46.4226C46.7799 5.99999 47.11 6.19059 47.2887 6.49999L61.7113 31.4808C61.89 31.7902 61.89 32.1714 61.7113 32.4808L47.2887 57.4615C47.11 57.7709 46.7799 57.9615 46.4226 57.9615H17.5774C17.2201 57.9615 16.89 57.7709 16.7113 57.4615L2.28868 32.4808Z"/>
    <path stroke="black" stroke-linecap="round" stroke-linejoin="round" stroke-width="3" d="M22.0102 15.3766L48.5705 31.1328C49.2189 31.5174 49.2247 32.4538 48.5812 32.8465L22.0209 49.0528C21.3545 49.4594 20.5 48.9798 20.5 48.1991L20.5 16.2367C20.5 15.4616 21.3436 14.9812 22.0102 15.3766Z"/>
</svg>
