<?xml version="1.0" encoding="UTF-8" standalone="no"?>
<svg
   xmlns:dc="http://purl.org/dc/elements/1.1/"
   xmlns:cc="http://creativecommons.org/ns#"
   xmlns:rdf="http://www.w3.org/1999/02/22-rdf-syntax-ns#"
   xmlns:svg="http://www.w3.org/2000/svg"
   xmlns="http://www.w3.org/2000/svg"
   xmlns:sodipodi="http://sodipodi.sourceforge.net/DTD/sodipodi-0.dtd"
   xmlns:inkscape="http://www.inkscape.org/namespaces/inkscape"
   version="1.1"
   id="svg2"
   xml:space="preserve"
   width="1200"
   height="900"
   sodipodi:docname="yt_logo_mono_dark.eps"><metadata
     id="metadata8"><rdf:RDF><cc:Work
         rdf:about=""><dc:format>image/svg+xml</dc:format><dc:type
           rdf:resource="http://purl.org/dc/dcmitype/StillImage" /></cc:Work></rdf:RDF></metadata><defs
     id="defs6" /><sodipodi:namedview
     pagecolor="#ffffff"
     bordercolor="#666666"
     borderopacity="1"
     id="namedview4" /><path
         d="M 485.938,242.969 V 607.426 L 801.555,425.195 Z m 703.522,474.636 c -13.97,52.266 -55.13,93.434 -107.4,107.403 -94.744,25.387 -474.638,25.387 -474.638,25.387 0,0 -379.891,0 -474.633,-25.387 C 80.5234,811.039 39.3555,769.871 25.3867,717.605 0,622.863 0,425.199 0,425.199 c 0,0 0,-197.672 25.3867,-292.41 C 39.3555,80.5273 80.5234,39.3555 132.789,25.3906 227.531,-0.00390625 607.422,-0.00390625 607.422,-0.00390625 c 0,0 379.894,0 474.638,25.39450625 52.27,13.9649 93.43,55.1367 107.4,107.3984 25.39,94.738 25.39,292.41 25.39,292.41 0,0 0,197.664 -25.39,292.406"
         style="fill:#ffffff;fill-opacity:1;fill-rule:nonzero;stroke:none"
         id="path14" /></svg>
