<svg xmlns="http://www.w3.org/2000/svg" width="64" height="64" fill="none" viewBox="0 0 64 64">
    <path stroke="black" stroke-linecap="round" stroke-linejoin="round" stroke-width="3" d="M48.2721 19.4853H56.7574V11"/>
    <mask id="path-2-inside-1" fill="white">
        <path fill-rule="evenodd" d="M7 32C7 45.8071 18.1929 57 32 57C45.8071 57 57 45.8071 57 32H60C60 47.464 47.464 60 32 60C16.536 60 4 47.464 4 32C4 16.536 16.536 4 32 4C43.1696 4 52.8116 10.5402 57.3055 20H53.9371C49.6901 12.2526 41.4584 7 32 7C18.1929 7 7 18.1929 7 32Z" clip-rule="evenodd"/>
    </mask>
    <path fill="black" fill-rule="evenodd" d="M7 32C7 45.8071 18.1929 57 32 57C45.8071 57 57 45.8071 57 32H60C60 47.464 47.464 60 32 60C16.536 60 4 47.464 4 32C4 16.536 16.536 4 32 4C43.1696 4 52.8116 10.5402 57.3055 20H53.9371C49.6901 12.2526 41.4584 7 32 7C18.1929 7 7 18.1929 7 32Z" clip-rule="evenodd"/>
    <path fill="black" d="M57 32H55C55 30.8954 55.8954 30 57 30V32ZM60 32V30C61.1046 30 62 30.8954 62 32H60ZM57.3055 20L59.112 19.1418C59.4063 19.7614 59.3626 20.4887 58.9961 21.0686C58.6296 21.6484 57.9915 22 57.3055 22V20ZM53.9371 20V22C53.2067 22 52.5344 21.6019 52.1833 20.9614L53.9371 20ZM32 59C17.0883 59 5 46.9117 5 32H9C9 44.7025 19.2975 55 32 55V59ZM59 32C59 46.9117 46.9117 59 32 59V55C44.7025 55 55 44.7025 55 32H59ZM57 30H60V34H57V30ZM62 32C62 48.5685 48.5685 62 32 62V58C46.3594 58 58 46.3594 58 32H62ZM32 62C15.4315 62 2 48.5685 2 32H6C6 46.3594 17.6406 58 32 58V62ZM2 32C2 15.4315 15.4315 2 32 2V6C17.6406 6 6 17.6406 6 32H2ZM32 2C43.9704 2 54.2994 9.01097 59.112 19.1418L55.499 20.8582C51.3239 12.0694 42.3687 6 32 6V2ZM57.3055 22H53.9371V18H57.3055V22ZM32 5C42.2178 5 51.1069 10.6766 55.6908 19.0386L52.1833 20.9614C48.2732 13.8286 40.6991 9 32 9V5ZM5 32C5 17.0883 17.0883 5 32 5V9C19.2975 9 9 19.2975 9 32H5Z" mask="url(#path-2-inside-1)"/>
</svg>
