<svg xmlns="http://www.w3.org/2000/svg" width="64" height="64" fill="none" viewBox="0 0 64 64">
    <path stroke="black" stroke-linecap="round" stroke-linejoin="round" stroke-width="3" d="M15.7279 19.4853H7.24264V11"/>
    <mask id="path-2-inside-1" fill="white">
        <path fill-rule="evenodd" d="M57 32C57 45.8071 45.8071 57 32 57C18.1929 57 7 45.8071 7 32H4C4 47.464 16.536 60 32 60C47.464 60 60 47.464 60 32C60 16.536 47.464 4 32 4C20.8304 4 11.1884 10.5402 6.69452 20H10.0629C14.3099 12.2526 22.5416 7 32 7C45.8071 7 57 18.1929 57 32Z" clip-rule="evenodd"/>
    </mask>
    <path fill="black" fill-rule="evenodd" d="M57 32C57 45.8071 45.8071 57 32 57C18.1929 57 7 45.8071 7 32H4C4 47.464 16.536 60 32 60C47.464 60 60 47.464 60 32C60 16.536 47.464 4 32 4C20.8304 4 11.1884 10.5402 6.69452 20H10.0629C14.3099 12.2526 22.5416 7 32 7C45.8071 7 57 18.1929 57 32Z" clip-rule="evenodd"/>
    <path fill="black" d="M7 32H10C10 30.3431 8.65685 29 7 29L7 32ZM4 32V29C2.34315 29 1 30.3431 1 32H4ZM6.69452 20L3.98474 18.7127C3.54322 19.6422 3.60884 20.733 4.1586 21.6028C4.70836 22.4726 5.66555 23 6.69452 23V20ZM10.0629 20V23C11.1585 23 12.167 22.4028 12.6936 21.4421L10.0629 20ZM32 60C47.464 60 60 47.464 60 32H54C54 44.1503 44.1503 54 32 54V60ZM4 32C4 47.464 16.536 60 32 60V54C19.8497 54 10 44.1503 10 32H4ZM7 29H4V35H7V29ZM1 32C1 49.1208 14.8792 63 32 63V57C18.1929 57 7 45.8071 7 32H1ZM32 63C49.1208 63 63 49.1208 63 32H57C57 45.8071 45.8071 57 32 57V63ZM63 32C63 14.8792 49.1208 1 32 1V7C45.8071 7 57 18.1929 57 32H63ZM32 1C19.6292 1 8.95677 8.24635 3.98474 18.7127L9.40431 21.2873C13.42 12.8341 22.0317 7 32 7V1ZM6.69452 23H10.0629V17H6.69452V23ZM32 4C21.4025 4 12.1847 9.88856 7.43228 18.5579L12.6936 21.4421C16.4352 14.6167 23.6806 10 32 10V4ZM60 32C60 16.536 47.464 4 32 4V10C44.1503 10 54 19.8497 54 32H60Z" mask="url(#path-2-inside-1)"/>
</svg>
