<?xml version="1.0" encoding="UTF-8" standalone="no"?>
<svg
   xmlns:dc="http://purl.org/dc/elements/1.1/"
   xmlns:cc="http://creativecommons.org/ns#"
   xmlns:rdf="http://www.w3.org/1999/02/22-rdf-syntax-ns#"
   xmlns:svg="http://www.w3.org/2000/svg"
   xmlns="http://www.w3.org/2000/svg"
   id="svg8"
   version="1.1"
   viewBox="0 0 508.95139 50.967777"
   height="192.63411"
   width="1923.5958">
  <defs
     id="defs2" />
  <metadata
     id="metadata5">
    <rdf:RDF>
      <cc:Work
         rdf:about="">
        <dc:format>image/svg+xml</dc:format>
        <dc:type
           rdf:resource="http://purl.org/dc/dcmitype/StillImage" />
        <dc:title></dc:title>
      </cc:Work>
    </rdf:RDF>
  </metadata>
  <g
     transform="translate(0.2110117,-245.93218)"
     id="layer1">
    <path
       d="m 379.94173,280.06665 c 0,0 31.41933,-31.01293 62.83846,0 31.41933,31.01264 62.83867,0 62.83867,0 V 249.05372 H 2.9105267 v 31.01293 c 0,0 31.4193473,-31.01293 62.8384483,0 31.419351,31.01264 62.838695,0 62.838695,0 m 125.67691,0 c 0,0 31.41934,-31.01293 62.83845,0 31.41933,31.01264 62.8387,0 62.8387,0 m -251.35406,0 c 0,0 31.41935,-31.01293 62.83846,0 31.41935,31.01264 62.83868,0 62.83868,0"
       style="fill:#000000;fill-opacity:1;stroke:#000000;stroke-width:6.2430768px;stroke-linecap:butt;stroke-linejoin:miter;stroke-opacity:1"
       id="path817-3-7" />
  </g>
</svg>
